<svg width="500" height="441" viewBox="0 0 500 441" fill="none" xmlns="http://www.w3.org/2000/svg">
<g clip-path="url(#clip0_402_412)">
<path d="M153.5 174.5C174.7 164.5 183 118 202 94C200 117 213.2 163.4 284 195C262 235 265 380 355 362.5C460 337.5 466.847 261.295 416 241.5C350.5 216 343.5 191.051 339.5 184C328.225 164.127 346.5 108.5 318 71.5C275.2 22.7 218.775 43.3734 207.275 68.8734C191.675 67.2734 174.5 68.8734 162 76.5C120 98.5 131.5 174.5 153.5 174.5Z" fill="#FEB044"/>
<mask id="mask0_402_412" style="mask-type:alpha" maskUnits="userSpaceOnUse" x="43" y="271" width="423" height="229">
<path d="M465.385 377C318.5 191.5 102 285 43 390.226C59.9644 415.22 81.3368 436.98 106 454.388C146.709 483.121 196.383 500 250 500C299.94 500 346.46 485.357 385.5 460.13C418.152 439.032 445.572 410.53 465.385 377Z" fill="#F84D77"/>
</mask>
<g mask="url(#mask0_402_412)">
<path d="M128.5 373.5C120 382.092 103.6 410.298 106 454.388" stroke="white" stroke-width="4" stroke-linecap="round"/>
<path d="M128.5 373.5C120 382.092 103.6 410.298 106 454.388M375 466.554C367.167 452.703 353.3 412.5 360.5 362.5" stroke="white" stroke-width="5" stroke-linecap="round"/>
</g>
<path d="M276 278.5C239.2 310.1 211.666 294.833 202.5 286V269.5V253C145 244.5 171.5 124 202.5 92C197.5 123 234.5 163 276 163V178C337 131 330.5 243 276 225L276 278.5Z" fill="#FFA995"/>
<path d="M276 278.5C239.2 310.1 211.666 294.833 202.5 286V269.5V253C145 244.5 171.5 124 202.5 92C197.5 123 234.5 163 276 163V178C337 131 330.5 243 276 225L276 278.5Z" fill="#FFCBBB"/>
<path d="M197.669 222.967C202.986 223.503 213.991 221.697 215.478 210.185" stroke="black" stroke-width="5" stroke-linecap="round" stroke-linejoin="round"/>
<ellipse cx="234.89" cy="184.645" rx="10" ry="6" transform="rotate(10 234.89 184.645)" fill="#E7A48F"/>
<path d="M285 194.698C285.99 192.011 288.518 187.883 292.724 185.069M305 182.106C299.936 181.599 295.863 182.968 292.724 185.069M292.724 185.069C296.569 185.315 304.111 189.069 303.519 202.106" stroke="black" stroke-width="5" stroke-linecap="round" stroke-linejoin="round"/>
<path d="M179.5 128L199 123" stroke="black" stroke-width="5" stroke-linecap="round"/>
<path d="M202.5 253C223.3 258.2 248.833 246.833 259 240.5C245.4 263.3 215.667 269.333 202.5 269.5V253Z" fill="#E7A48F"/>
<path d="M203.5 163.5C198.167 165.833 191.5 179.5 195.5 200.5" stroke="black" stroke-width="5" stroke-linecap="round"/>
<path d="M256 157.5C256 169.926 245.926 180 233.5 180C221.074 180 211 169.926 211 157.5M256 157.5C256 145.074 245.926 135 233.5 135C221.074 135 211 145.074 211 157.5M256 157.5L284.5 171.5M211 157.5L201 156.5M201 156.5C201 168.926 190.926 179 178.5 179C166.074 179 156 168.926 156 156.5C156 155.826 156.03 155.159 156.088 154.5M201 156.5C201 144.074 190.926 134 178.5 134C171.432 134 165.125 137.259 161 142.357C158.266 145.735 156.491 149.921 156.088 154.5M173 157.5L156.088 154.5" stroke="#F84D77" stroke-width="5" stroke-linecap="round" stroke-linejoin="round"/>
<mask id="mask1_402_412" style="mask-type:alpha" maskUnits="userSpaceOnUse" x="0" y="0" width="500" height="500">
<circle cx="250" cy="250" r="250" fill="#F7F5FF"/>
</mask>
<g mask="url(#mask1_402_412)">
<path d="M202.698 286.392C227.54 293.934 259.767 285.824 276 277.5C279.138 275.32 289.5 285.5 288 297.067C301.241 311.006 372.638 311.046 392.5 359.5C402.133 383 449.5 471.5 462.5 498.5L373.5 522.742L345.733 437.235C344.982 434.921 341.53 435.702 341.848 438.114L353 522.742C264.945 541.859 157.983 523.465 139.5 515.5L152.503 435.042C152.886 432.675 149.538 431.762 148.666 433.996L114 522.742L43.5 483L73.5 425L110.5 363.5C141.5 313.5 168 305 200 300V288.342C200 286.958 201.373 285.99 202.698 286.392Z" fill="#F84D77"/>
</g>
<circle cx="201.5" cy="309.5" r="6.5" fill="white"/>
<circle cx="219.5" cy="318.5" r="6.5" fill="white"/>
<circle cx="243.5" cy="319.5" r="6.5" fill="white"/>
<circle cx="265.5" cy="312.5" r="6.5" fill="white"/>
<circle cx="283.5" cy="305.5" r="6.5" fill="white"/>
<path d="M284 213.472L286.139 220.056C286.675 221.704 288.21 222.82 289.943 222.82H296.866L291.265 226.889C289.863 227.907 289.277 229.713 289.812 231.361L291.951 237.944L286.351 233.875C284.949 232.857 283.051 232.857 281.649 233.875L276.049 237.944L278.188 231.361C278.723 229.713 278.137 227.907 276.735 226.889L271.134 222.82L278.057 222.82C279.79 222.82 281.325 221.704 281.861 220.056L284 213.472Z" stroke="white" stroke-width="4"/>
<path d="M242.5 447C190.5 437 209 364.5 242.5 411.5C277 355 291.5 436.5 242.5 447Z" fill="#E7073E"/>
<mask id="mask2_402_412" style="mask-type:alpha" maskUnits="userSpaceOnUse" x="0" y="0" width="500" height="500">
<circle cx="250" cy="250" r="250" fill="#F7F5FF"/>
</mask>
<g mask="url(#mask2_402_412)">
<path d="M265.68 410.094L430.905 445.04L392.311 494.365L226.842 412.231C157.201 338.971 183.267 353.119 205.005 369.35C202.74 357.993 196.422 350.003 193.547 347.427C152.959 340.125 145.98 333.77 147.564 331.505C179.407 328.933 201.408 335.035 208.428 338.407C248.718 340.291 263.384 386.983 265.68 410.094Z" fill="#FFCBBB"/>
<mask id="mask3_402_412" style="mask-type:alpha" maskUnits="userSpaceOnUse" x="147" y="330" width="284" height="165">
<path d="M265.68 410.094L430.905 445.04L392.311 494.365L226.842 412.231C157.201 338.971 183.267 353.119 205.005 369.35C202.74 357.993 196.422 350.003 193.547 347.427C152.959 340.125 145.98 333.77 147.564 331.505C179.407 328.933 201.408 335.035 208.428 338.407C248.718 340.291 263.384 386.983 265.68 410.094Z" fill="#FFCBBB"/>
</mask>
<g mask="url(#mask3_402_412)">
<path d="M208.428 338.407C206.808 346.174 207.151 363.147 216.941 381.337M247.359 375.221C238.558 375.221 232.003 378.731 231.538 384.641C231.503 385.089 231.589 385.544 231.731 385.97C235.933 398.631 233.938 402.454 230.255 399.741C227.354 396.645 224.803 393.506 222.563 390.364M238.226 358.296C230.255 363.5 220.318 379.366 222.563 390.364M222.563 390.364C220.412 387.345 218.549 384.325 216.941 381.337M227.5 349.66C222.267 353.934 212.83 366.253 216.941 381.337" stroke="#E7A48F" stroke-width="2" stroke-linecap="round" stroke-linejoin="round"/>
</g>
<path d="M185.259 376.818L144.775 277.448C143.794 275.041 141.505 273.423 138.908 273.303L99.6144 271.49C94.7031 271.263 91.2443 276.249 93.1771 280.77L136.437 381.954C137.486 384.408 139.898 386 142.567 386H179.085C183.82 386 187.046 381.203 185.259 376.818Z" fill="black"/>
<path d="M129.641 365.957C139.558 363.11 148.034 332.013 154.5 334.5C157.373 335.936 158.115 338.947 156.994 343C160.677 345.141 163.678 349.333 162.485 355.5C170.968 358.235 176.365 384.021 120.536 423.621C120.196 423.862 119.926 424.212 119.789 424.606L77.0366 547.286C75.3593 552.099 70.0985 554.642 65.2849 552.966L18.3448 536.624C12.4673 534.578 10.2845 527.384 13.9824 522.379C61.5894 457.933 76.1338 437.112 103.93 389.477C104.304 388.837 104.621 388.089 104.832 387.379C146.627 246.288 138.332 337.833 132.807 352.712C132.598 353.276 132.413 353.795 132.273 354.38L129.523 365.839C129.505 365.912 129.569 365.978 129.641 365.957Z" fill="#FFCBBB"/>
<mask id="mask4_402_412" style="mask-type:alpha" maskUnits="userSpaceOnUse" x="12" y="309" width="156" height="245">
<path d="M129.641 365.957C139.558 363.11 148.034 332.013 154.5 334.5C157.372 335.936 158.115 338.947 156.994 343C160.677 345.141 163.678 349.333 162.485 355.5C170.968 358.235 176.365 384.021 120.536 423.621C120.196 423.862 119.926 424.212 119.789 424.606L77.0365 547.286C75.3593 552.099 70.0984 554.642 65.2849 552.966L18.3447 536.624C12.4672 534.578 10.2844 527.384 13.9823 522.379C61.5894 457.933 76.1338 437.112 103.93 389.477C104.304 388.837 104.621 388.089 104.832 387.379C146.627 246.288 138.332 337.833 132.807 352.712C132.597 353.276 132.413 353.795 132.273 354.38L129.523 365.839C129.505 365.912 129.569 365.978 129.641 365.957Z" fill="#FFCBBB"/>
</mask>
<g mask="url(#mask4_402_412)">
<path d="M73.9999 556L6.49986 532.5M129.5 380.5C145.5 374.5 157 351.5 158.5 340M135.5 392.5C154 385.5 163.7 361 163.7 353" stroke="#E7A48F" stroke-width="2" stroke-linecap="round" stroke-linejoin="round"/>
</g>
</g>
<path d="M244 156C240.667 161.196 229.5 166.392 222 156" stroke="black" stroke-width="5" stroke-linecap="round"/>
<path d="M194.5 156C191.167 161.196 180 165 175 158" stroke="black" stroke-width="5" stroke-linecap="round"/>
<circle cx="103.937" cy="282.937" r="3.5" transform="rotate(-7.68495 103.937 282.937)" fill="white"/>
</g>
<defs>
<clipPath id="clip0_402_412">
<rect width="500" height="441" fill="white"/>
</clipPath>
</defs>
</svg>
