<svg width="500" height="441" viewBox="0 0 500 441" fill="none" xmlns="http://www.w3.org/2000/svg">
<g clip-path="url(#clip0_408_492)">
<mask id="mask0_408_492" style="mask-type:alpha" maskUnits="userSpaceOnUse" x="0" y="0" width="500" height="500">
<circle cx="250" cy="250" r="250" fill="#F7F5FF"/>
</mask>
<g mask="url(#mask0_408_492)">
<path d="M40 450C51.5538 422.709 116.5 295.682 169.859 295.682V293.292L195.556 286.12V287.913H205.118C205.317 284.925 209.438 279.188 219 280.144C217.805 359.029 316.871 341.5 300.137 280.144C304.52 279.547 316.871 280.264 316.871 287.913H325.835V286.12L350.934 293.292V295.682C413 317 476.372 396.45 484.5 439C481.594 449.939 417.235 503.934 391.5 510.5C339.654 523.728 225.863 531.442 156.114 510.5C139.431 505.491 54.1654 457.742 40 450Z" fill="#8757E7"/>
<path d="M316.871 287.913C305.516 372.176 209.301 354.248 205.118 287.913C205.317 284.925 209.438 279.188 219 280.144C217.805 359.029 316.871 341.5 300.137 280.144C304.52 279.547 316.871 280.264 316.871 287.913Z" fill="white"/>
<path d="M169.859 293.292V295.682V350.065L156.114 360.224L117 510.5C186.75 531.442 354.154 523.728 406 510.5L363.484 358.431L350.934 351.26V295.682V293.292L325.835 286.12V287.913V324.965C325.357 350.304 308.504 360.224 300.137 362.017H226.631C201.771 362.017 195.556 337.316 195.556 324.965V287.913V286.12L169.859 293.292Z" fill="#F84D77"/>
</g>
<path d="M310.5 114C350.9 211.6 319 245.667 298 250.5L299.827 269.786C299.838 269.902 299.746 270.002 299.63 270.005C264.437 270.694 242.861 249.293 237.35 237.302C237.261 237.109 237.504 236.95 237.665 237.09C258.042 254.862 287.284 253.138 298 250.5C319 245.667 350.9 211.6 310.5 114C299.333 109.667 275.1 106.5 267.5 128.5C263.5 147 240.4 176.3 202 159.5C193.522 81.2055 287.506 101.228 310.322 101.994C310.43 101.998 310.5 102.086 310.5 102.194V114Z" fill="black"/>
<path d="M219.5 284.5V226.205C219.5 226.093 219.414 226.002 219.302 226.004C205.196 226.166 173.011 208.373 175.5 181.5C177.944 155.099 197.598 154.513 198.47 154.5C198.497 154.5 198.513 154.506 198.539 154.517C236.918 171.284 263.501 146.994 267.5 128.5C275.1 106.5 299.333 109.667 310.5 114C350.9 211.6 319 245.667 298 250.5L299.847 270L302 291C305 339.5 223 355 219.5 284.5Z" fill="#FFB0A2"/>
<path d="M264.689 154.186C265.659 159.342 268.646 163.108 271.36 162.597C274.074 162.086 275.487 157.492 274.516 152.336C273.546 147.18 270.559 143.414 267.845 143.925C266.308 144.214 265.189 145.813 264.683 148.082C264.295 149.819 264.268 151.95 264.689 154.186Z" fill="black"/>
<path d="M264.683 148.082C265.189 145.813 266.308 144.214 267.845 143.925C270.559 143.414 273.546 147.18 274.516 152.336C275.487 157.492 274.074 162.086 271.36 162.597C268.646 163.108 265.659 159.342 264.689 154.186C264.268 151.95 264.295 149.819 264.683 148.082ZM264.683 148.082C263.904 146.871 261.808 145.367 259.648 149.029" stroke="black" stroke-width="3" stroke-linecap="round" stroke-linejoin="round"/>
<path d="M310.512 142.775C312.008 147.804 311.076 152.519 308.429 153.307C305.782 154.094 302.424 150.656 300.927 145.627C299.431 140.599 300.363 135.883 303.01 135.096C304.509 134.65 306.236 135.559 307.724 137.345C308.864 138.713 309.863 140.594 310.512 142.775Z" fill="black"/>
<path d="M307.724 137.345C306.236 135.559 304.509 134.65 303.01 135.096C300.363 135.883 299.431 140.599 300.927 145.627C302.424 150.656 305.782 154.094 308.429 153.307C311.076 152.519 312.008 147.804 310.512 142.775C309.863 140.594 308.864 138.713 307.724 137.345ZM307.724 137.345C307.862 135.913 309.038 133.615 312.635 135.884" stroke="black" stroke-width="3" stroke-linecap="round" stroke-linejoin="round"/>
<path d="M237.665 237.09C257.906 254.744 286.894 253.16 297.783 250.553C297.902 250.524 298.01 250.609 298.022 250.731L299.827 269.786C299.838 269.902 299.746 270.002 299.63 270.005C264.437 270.694 242.862 249.293 237.351 237.302C237.262 237.109 237.505 236.95 237.665 237.09Z" fill="black"/>
<path d="M276.5 129H260.5" stroke="black" stroke-width="5" stroke-linecap="round" stroke-linejoin="round"/>
<path d="M299 129.5C302.333 127.167 310.5 124.4 316.5 132" stroke="black" stroke-width="5" stroke-linecap="round" stroke-linejoin="round"/>
<path d="M382.591 125.341C396.054 138.696 393.65 183.531 322.007 127.725C292.317 157.541 235.403 152.239 211.418 137.98L168.145 165.445L157.65 170.653C125.434 78.3586 192.186 46.6399 211.418 40.4393C211.803 32.4261 224.881 32.8075 224.881 36.6235C300.659 31.2814 325.052 78.5972 327.777 102.923C362.012 109.41 378.584 120.571 382.591 125.341Z" fill="#FFAE45"/>
<path d="M211.5 140.5C204.171 150.253 215.259 167.083 215.259 178.802C210.919 168.295 204.735 159.647 194.127 157.288C173.876 152.785 163.086 214.492 219.5 226V234.5C193.945 243.506 167.44 199.73 163.5 168L211.5 140.5Z" fill="black"/>
<path d="M215.745 41C188 84 210.232 137.276 211.418 137.98M322.007 127.725C292.317 157.541 235.403 152.239 211.418 137.98M211.418 137.98L168.145 165.445" stroke="#FF9E18" stroke-width="5" stroke-linecap="round"/>
<circle cx="337.189" cy="354.846" r="7.17131" fill="#FF9C12"/>
<circle cx="184.201" cy="354.846" r="7.17131" fill="#FF9C12"/>
<path d="M199.878 171.872C197.719 171.737 194.094 172.227 190.865 174.277M185.073 181.861C186.267 178.205 188.456 175.806 190.865 174.277M190.865 174.277C189.863 177.01 190.159 183.369 199.353 186.935" stroke="black" stroke-width="5" stroke-linecap="round" stroke-linejoin="round"/>
<path d="M296.131 168C301.363 176.664 307.862 191.914 292 183.596" stroke="black" stroke-width="5" stroke-linecap="round"/>
<path d="M275.936 210.062C283.87 217.711 294.792 219.297 299.589 214.17C300.074 213.652 299.739 212.856 299.042 212.725L276.779 208.524C275.852 208.35 275.258 209.408 275.936 210.062Z" stroke="black" stroke-width="5" stroke-linecap="round"/>
</g>
<defs>
<clipPath id="clip0_408_492">
<rect width="500" height="441" fill="white"/>
</clipPath>
</defs>
</svg>
