<svg width="500" height="428" viewBox="0 0 500 428" fill="none" xmlns="http://www.w3.org/2000/svg">
<g clip-path="url(#clip0_406_463)">
<path d="M266 139.5C262 173.5 215.059 146.403 191.651 129.879C193.434 140.252 195.9 163.7 187.5 172.5C146 162 160 228.5 194.5 225C195.7 237.4 205.167 247.333 209 251C216.27 307.181 194.955 318.802 180.084 321.556C133.156 330.148 131.889 293.19 137.122 273.636C104.074 293.465 85.0717 259.591 108.205 232.327C124.729 218.447 127.207 207.816 126.381 204.236C110.542 161.244 109.545 129.957 117.175 107.955C112.631 103.454 108.762 97.1836 106.553 88.5691C111.078 86.5581 121.66 83.3997 130.509 85.3776C131.16 84.6733 131.825 83.9878 132.503 83.3208C131.323 75.7217 130.565 63.2439 134.643 58C139.552 59.1086 147.831 62.4938 155.238 68.9411C176.93 60.6336 202.746 62.3166 222.22 69.9136C225.127 71.0477 227.892 72.3135 230.482 73.6975C305.5 68.6963 325.711 123.653 318 173.5C312.5 167.5 303.5 165 293.5 172.5C278.5 164.5 269.166 150.207 266 139.5Z" fill="#EB356E"/>
<path d="M144.558 141.445C153.811 91.2129 205.696 75.35 230.482 73.6975C227.892 72.3135 225.127 71.0477 222.22 69.9136C194.191 70.1912 174.739 82.4663 168.517 88.5691C161.908 68.7405 143.181 59.9278 134.643 58C130.017 63.9486 131.614 79.2056 132.991 86.0906C123.738 82.7858 111.51 86.366 106.553 88.5691C113.162 114.346 134.643 119.138 144.558 118.312C139.931 130.209 142.63 138.691 144.558 141.445Z" fill="#FFC7D5"/>
<path d="M207.999 293.5V251.5C204.832 248.333 196.5 240.3 194.5 225.5C154.501 225.5 148.599 160.4 186.999 172C195.999 158 191.5 143.5 191.5 130C232.5 155 261.5 167.5 266 139C267.833 145.167 275.9 160.4 293.5 172C326.5 151 335 209.5 295.999 223.5C295.999 240.7 287.999 252 283.999 255.5V293.5C291.499 294.5 309.9 300.6 323.5 317C285 331.833 205.5 397.5 207.999 293.5Z" fill="#FFB8A2"/>
<mask id="mask0_406_463" style="mask-type:alpha" maskUnits="userSpaceOnUse" x="0" y="0" width="500" height="500">
<circle cx="250" cy="250" r="250" fill="#F7F5FF"/>
</mask>
<g mask="url(#mask0_406_463)">
<path d="M90.7123 421.858L107 350.5C114 313 179.851 283.561 208 293C213.282 297.695 223.219 300.408 231.995 316.383C232.154 316.673 232.329 317.011 232.518 317.395C255.267 360.885 272.757 320.706 295 296.5L298.5 298C310.5 302.833 368.5 305 392.5 350.5L435.5 441L401.5 490.251C403.697 496.294 295 562.5 245.628 550H80V430.922L90.7123 421.858Z" fill="#FDAE45"/>
<path d="M249.5 361.5C251.5 383 251.5 428 245.628 467.179V550" stroke="#FF9C12" stroke-width="5" stroke-linecap="round" stroke-linejoin="round"/>
<path d="M231.995 316.383C232.1 316.573 232.211 316.789 232.328 317.03C255.17 361.108 272.695 320.773 295 296.5L298.5 298L251.76 364.295C250.819 365.63 248.781 365.344 248.278 363.79C244.496 352.104 235.744 324.049 232.328 317.03C232.217 316.817 232.106 316.601 231.995 316.383Z" fill="#FFDBAB"/>
<path d="M162.75 526.444C160.66 512.439 157.39 487.061 154.937 459.778M151.639 397.556C151.639 416.529 153.044 438.72 154.937 459.778M154.937 459.778C149.764 458.667 138.083 445.333 132.75 400.889" stroke="#FF9C12" stroke-width="5" stroke-linecap="round" stroke-linejoin="round"/>
<path d="M343.5 501C345.59 486.995 348.548 478.283 351 451C352.893 429.943 340.111 381.973 340.111 363" stroke="#FF9C12" stroke-width="5" stroke-linecap="round" stroke-linejoin="round"/>
</g>
<path d="M258.5 156.5C264 152 274 155 276.5 160" stroke="black" stroke-width="5" stroke-linecap="round" stroke-linejoin="round"/>
<path d="M219 157.128C215 156.628 206.2 157.328 203 164.128" stroke="black" stroke-width="5" stroke-linecap="round" stroke-linejoin="round"/>
<path d="M210 254C220.073 264.989 247.975 280.688 279 255.57C279 274.801 229.34 297.643 210 254Z" fill="black"/>
<path d="M296.355 181.099C298.514 180.964 302.14 181.453 305.368 183.503M311.16 191.087C309.966 187.431 307.778 185.033 305.368 183.503M305.368 183.503C306.37 186.237 306.075 192.596 296.88 196.161" stroke="black" stroke-width="5" stroke-linecap="round" stroke-linejoin="round"/>
<path d="M184.878 182.872C182.719 182.737 179.094 183.227 175.865 185.277M170.073 192.861C171.267 189.205 173.456 186.806 175.865 185.277M175.865 185.277C174.863 188.01 175.159 194.369 184.353 197.935" stroke="black" stroke-width="5" stroke-linecap="round" stroke-linejoin="round"/>
<path d="M239.5 233.5C246.5 238 259 234 265.5 224.5" stroke="black" stroke-width="5" stroke-linecap="round" stroke-linejoin="round"/>
<path d="M272 180.5C272 185.747 269.761 190 267 190C264.239 190 262 185.747 262 180.5C262 175.253 264.239 171 267 171C268.564 171 269.96 172.364 270.877 174.5C271.579 176.136 272 178.224 272 180.5Z" fill="black"/>
<path d="M270.877 174.5C269.96 172.364 268.564 171 267 171C264.239 171 262 175.253 262 180.5C262 185.747 264.239 190 267 190C269.761 190 272 185.747 272 180.5C272 178.224 271.579 176.136 270.877 174.5ZM270.877 174.5C271.418 173.167 273.2 171.3 276 174.5" stroke="black" stroke-width="3" stroke-linecap="round" stroke-linejoin="round"/>
<path d="M208 181.5C208 186.747 210.239 191 213 191C215.761 191 218 186.747 218 181.5C218 176.253 215.761 172 213 172C211.436 172 210.04 173.364 209.123 175.5C208.421 177.136 208 179.224 208 181.5Z" fill="black"/>
<path d="M209.123 175.5C210.04 173.364 211.436 172 213 172C215.761 172 218 176.253 218 181.5C218 186.747 215.761 191 213 191C210.239 191 208 186.747 208 181.5C208 179.224 208.421 177.136 209.123 175.5ZM209.123 175.5C208.582 174.167 204.5 173 203.5 177" stroke="black" stroke-width="3" stroke-linecap="round" stroke-linejoin="round"/>
<circle cx="266" cy="390" r="6" fill="#FFDBAB"/>
<circle cx="266" cy="422" r="6" fill="#FFDBAB"/>
<path d="M244.286 187L240 207.5C240.643 209.787 248.343 212.204 254 207.5" stroke="black" stroke-width="5" stroke-linecap="round"/>
</g>
<defs>
<clipPath id="clip0_406_463">
<rect width="500" height="428" fill="white"/>
</clipPath>
</defs>
</svg>
