<svg width="16" height="16" viewBox="0 0 16 16" fill="none" xmlns="http://www.w3.org/2000/svg">
<path fill-rule="evenodd" clip-rule="evenodd" d="M3.7159 3.12764C3.16045 3.58862 3.01415 4.36891 2.72154 5.9295L2.22154 8.59617C1.81008 10.7906 1.60435 11.8879 2.20416 12.6106C2.80397 13.3333 3.92032 13.3333 6.15303 13.3333H9.84695C12.0797 13.3333 13.196 13.3333 13.7958 12.6106C14.3956 11.8879 14.1899 10.7906 13.7784 8.59617L13.2784 5.9295C12.9858 4.36891 12.8395 3.58862 12.2841 3.12764C11.7286 2.66666 10.9347 2.66666 9.34695 2.66666H6.65303C5.06524 2.66666 4.27135 2.66666 3.7159 3.12764ZM6.58548 5.1667C6.79163 5.74997 7.34793 6.16666 8.00025 6.16666C8.65258 6.16666 9.20887 5.74997 9.41503 5.1667C9.50705 4.90634 9.79271 4.76988 10.0531 4.8619C10.3134 4.95393 10.4499 5.23959 10.3579 5.49995C10.0149 6.47027 9.08955 7.16666 8.00025 7.16666C6.91096 7.16666 5.9856 6.47027 5.64264 5.49995C5.55061 5.23959 5.68708 4.95393 5.94743 4.8619C6.20779 4.76988 6.49345 4.90634 6.58548 5.1667Z" fill="#FFC700"/>
</svg>
