<svg width="16" height="16" viewBox="0 0 16 16" fill="none" xmlns="http://www.w3.org/2000/svg">
<path fill-rule="evenodd" clip-rule="evenodd" d="M14.6667 7.99998C14.6667 11.6819 11.6819 14.6666 8.00004 14.6666C4.31814 14.6666 1.33337 11.6819 1.33337 7.99998C1.33337 4.31808 4.31814 1.33331 8.00004 1.33331C11.6819 1.33331 14.6667 4.31808 14.6667 7.99998ZM8.00004 11.8333C8.27618 11.8333 8.50004 11.6095 8.50004 11.3333V7.33331C8.50004 7.05717 8.27618 6.83331 8.00004 6.83331C7.7239 6.83331 7.50004 7.05717 7.50004 7.33331V11.3333C7.50004 11.6095 7.7239 11.8333 8.00004 11.8333ZM8.00004 4.66665C8.36823 4.66665 8.66671 4.96512 8.66671 5.33331C8.66671 5.7015 8.36823 5.99998 8.00004 5.99998C7.63185 5.99998 7.33337 5.7015 7.33337 5.33331C7.33337 4.96512 7.63185 4.66665 8.00004 4.66665Z" fill="#FFC700"/>
</svg>
