<svg width="20" height="23" viewBox="0 0 20 23" fill="none" xmlns="http://www.w3.org/2000/svg">
<path d="M1.8645 2.11237C1.53703 1.99146 1.18308 2.1875 1.07393 2.55023C0.964775 2.91296 1.14175 3.30503 1.46921 3.42594L1.68997 3.50745C2.25365 3.71557 2.62631 3.85428 2.90085 3.99575C3.16082 4.12971 3.27322 4.23752 3.34523 4.3482C3.41725 4.45888 3.47404 4.61108 3.50657 4.92663C3.54091 5.25987 3.54186 5.69535 3.54186 6.3535L3.54186 8.81981C3.54184 10.0822 3.54183 11.0997 3.63896 11.9C3.73981 12.7309 3.95555 13.4304 4.45715 13.9861C4.95875 14.5417 5.59031 14.7807 6.3404 14.8924C7.06287 15 7.98146 14.9999 9.12112 14.9999H15.0002C15.3454 14.9999 15.6252 14.69 15.6252 14.3076C15.6252 13.9253 15.3454 13.6153 15.0002 13.6153H9.16686C7.97068 13.6153 7.13642 13.6138 6.50696 13.5201C5.89548 13.429 5.57167 13.2625 5.34103 13.007C5.14504 12.7899 5.00702 12.4983 4.91952 11.9999H13.3519C14.1514 11.9999 14.5512 11.9999 14.8642 11.7712C15.1773 11.5426 15.3348 11.1356 15.6497 10.3215L16.0069 9.39847C16.6815 7.65494 17.0188 6.78318 16.6483 6.16078C16.2777 5.53839 15.4215 5.53839 13.709 5.53839H4.78773C4.78282 5.25437 4.77205 4.99812 4.7485 4.76957C4.70237 4.32205 4.60187 3.91141 4.35929 3.5386C4.11671 3.16579 3.7968 2.93032 3.4281 2.74033C3.08124 2.56159 2.64013 2.39874 2.11816 2.20603L1.8645 2.11237Z" fill="#FFC700"/>
<path d="M6.25002 16.6153C6.94038 16.6153 7.50002 17.2353 7.50002 18C7.50002 18.7647 6.94038 19.3846 6.25002 19.3846C5.55966 19.3846 5.00002 18.7647 5.00002 18C5.00002 17.2353 5.55966 16.6153 6.25002 16.6153Z" fill="#FFC700"/>
<path d="M13.75 16.6154C14.4404 16.6154 15 17.2353 15 18C15 18.7647 14.4404 19.3846 13.75 19.3846C13.0597 19.3846 12.5 18.7647 12.5 18C12.5 17.2353 13.0597 16.6154 13.75 16.6154Z" fill="#FFC700"/>
</svg>
